G04*
G04 #@! TF.GenerationSoftware,Altium Limited,Altium Designer,21.9.2 (33)*
G04*
G04 Layer_Color=65535*
%FSLAX25Y25*%
%MOIN*%
G70*
G04*
G04 #@! TF.SameCoordinates,1158F630-F6B0-42DE-A473-F25834DE5FAC*
G04*
G04*
G04 #@! TF.FilePolarity,Positive*
G04*
G01*
G75*
%ADD10C,0.00787*%
%ADD11C,0.00700*%
D10*
X247453Y266000D02*
X246665D01*
X247453D01*
X55394Y232941D02*
X54606D01*
X55394D01*
X434453Y267500D02*
X433665D01*
X434453D01*
X475453Y12000D02*
X474665D01*
X475453D01*
X291953Y15500D02*
X291165D01*
X291953D01*
X98394Y2441D02*
X97606D01*
X98394D01*
X317335Y230500D02*
X316547D01*
X317335D01*
X247835Y259500D02*
X247047D01*
X247835D01*
X365835Y230500D02*
X365047D01*
X365835D01*
X244500Y251000D02*
Y271000D01*
X164500Y251000D02*
Y271000D01*
Y251000D02*
X244500D01*
X164500Y271000D02*
X244500D01*
X50000Y235500D02*
X60000D01*
X50000Y255500D02*
X60000D01*
X50000Y235500D02*
Y255500D01*
X60000Y235500D02*
Y255500D01*
X391500Y272500D02*
X431500D01*
X391500Y262500D02*
X431500D01*
X391500D02*
Y272500D01*
X431500Y262500D02*
Y272500D01*
X472500Y7000D02*
Y17000D01*
X432500Y7000D02*
Y17000D01*
Y7000D02*
X472500D01*
X432500Y17000D02*
X472500D01*
X289000Y10500D02*
Y20500D01*
X249000Y10500D02*
Y20500D01*
Y10500D02*
X289000D01*
X249000Y20500D02*
X289000D01*
X93000Y5000D02*
X103000D01*
X93000Y45000D02*
X103000D01*
X93000Y5000D02*
Y45000D01*
X103000Y5000D02*
Y45000D01*
X319500Y225500D02*
Y235500D01*
X359500Y225500D02*
Y235500D01*
X319500D02*
X359500D01*
X319500Y225500D02*
X359500D01*
X250000Y254500D02*
Y264500D01*
X290000Y254500D02*
Y264500D01*
X250000D02*
X290000D01*
X250000Y254500D02*
X290000D01*
X368000Y225500D02*
Y235500D01*
X408000Y225500D02*
Y235500D01*
X368000D02*
X408000D01*
X368000Y225500D02*
X408000D01*
D11*
X109660Y43419D02*
X111659D01*
X110659Y44418D02*
Y42419D01*
X109416Y6464D02*
X111415D01*
X376700Y238200D02*
X378699D01*
X396700Y239200D02*
X398699D01*
X397700Y240199D02*
Y238200D01*
X421200Y258200D02*
X423199D01*
X400700Y258200D02*
X402699D01*
X401700Y259199D02*
Y257200D01*
X66300Y239700D02*
X64301D01*
X63301Y240700D01*
X64301Y241699D01*
X66300D01*
X64801D01*
Y239700D01*
X63301Y244698D02*
Y242699D01*
X66300D01*
Y244698D01*
X64801Y242699D02*
Y243699D01*
X66300Y245698D02*
X63301D01*
Y247198D01*
X63801Y247697D01*
X64801D01*
X65300Y247198D01*
Y245698D01*
Y246698D02*
X66300Y247697D01*
X63301Y250197D02*
Y249197D01*
X63801Y248697D01*
X65800D01*
X66300Y249197D01*
Y250197D01*
X65800Y250696D01*
X63801D01*
X63301Y250197D01*
X202199Y247699D02*
X200200D01*
Y246199D01*
X201200D01*
X200200D01*
Y244700D01*
X203199Y247699D02*
Y244700D01*
X204699D01*
X205198Y245200D01*
Y247199D01*
X204699Y247699D01*
X203199D01*
X208197Y247199D02*
X207698Y247699D01*
X206698D01*
X206198Y247199D01*
Y245200D01*
X206698Y244700D01*
X207698D01*
X208197Y245200D01*
X333700Y239700D02*
Y242699D01*
X334700Y241699D01*
X335699Y242699D01*
Y239700D01*
X338198Y242699D02*
X337199D01*
X336699Y242199D01*
Y240200D01*
X337199Y239700D01*
X338198D01*
X338698Y240200D01*
Y242199D01*
X338198Y242699D01*
X339698D02*
X341697D01*
X340698D01*
Y239700D01*
X344197Y242699D02*
X343197D01*
X342697Y242199D01*
Y240200D01*
X343197Y239700D01*
X344197D01*
X344696Y240200D01*
Y242199D01*
X344197Y242699D01*
X345696Y239700D02*
Y242699D01*
X347196D01*
X347695Y242199D01*
Y241199D01*
X347196Y240700D01*
X345696D01*
X346696D02*
X347695Y239700D01*
X348695Y242199D02*
X349195Y242699D01*
X350195D01*
X350694Y242199D01*
Y241699D01*
X350195Y241199D01*
X349695D01*
X350195D01*
X350694Y240700D01*
Y240200D01*
X350195Y239700D01*
X349195D01*
X348695Y240200D01*
X377200Y222699D02*
Y219700D01*
X378699D01*
X379199Y220200D01*
Y220700D01*
X378699Y221199D01*
X377200D01*
X378699D01*
X379199Y221699D01*
Y222199D01*
X378699Y222699D01*
X377200D01*
X380199Y219700D02*
Y221699D01*
X381199Y222699D01*
X382198Y221699D01*
Y219700D01*
Y221199D01*
X380199D01*
X383198Y222699D02*
X385197D01*
X384198D01*
Y219700D01*
X386197Y222699D02*
X388196D01*
X387197D01*
Y219700D01*
X389196Y219200D02*
X391196D01*
X392195Y219700D02*
Y222699D01*
X393195Y221699D01*
X394195Y222699D01*
Y219700D01*
X396694Y222699D02*
X395694D01*
X395194Y222199D01*
Y220200D01*
X395694Y219700D01*
X396694D01*
X397194Y220200D01*
Y222199D01*
X396694Y222699D01*
X398193D02*
X400193D01*
X399193D01*
Y219700D01*
X403192D02*
X401192D01*
X403192Y221699D01*
Y222199D01*
X402692Y222699D01*
X401692D01*
X401192Y222199D01*
X362700Y269699D02*
Y266700D01*
X364199D01*
X364699Y267200D01*
Y267700D01*
X364199Y268199D01*
X362700D01*
X364199D01*
X364699Y268699D01*
Y269199D01*
X364199Y269699D01*
X362700D01*
X365699Y266700D02*
Y268699D01*
X366699Y269699D01*
X367698Y268699D01*
Y266700D01*
Y268199D01*
X365699D01*
X368698Y269699D02*
X370697D01*
X369698D01*
Y266700D01*
X371697Y269699D02*
X373696D01*
X372697D01*
Y266700D01*
X374696Y266200D02*
X376695D01*
X377695Y266700D02*
Y269699D01*
X378695Y268699D01*
X379695Y269699D01*
Y266700D01*
X382194Y269699D02*
X381194D01*
X380694Y269199D01*
Y267200D01*
X381194Y266700D01*
X382194D01*
X382694Y267200D01*
Y269199D01*
X382194Y269699D01*
X383693D02*
X385693D01*
X384693D01*
Y266700D01*
X386692D02*
X387692D01*
X387192D01*
Y269699D01*
X386692Y269199D01*
X286025Y267906D02*
Y270905D01*
X287025Y269905D01*
X288025Y270905D01*
Y267906D01*
X290524Y270905D02*
X289524D01*
X289024Y270405D01*
Y268406D01*
X289524Y267906D01*
X290524D01*
X291024Y268406D01*
Y270405D01*
X290524Y270905D01*
X292023D02*
X294023D01*
X293023D01*
Y267906D01*
X296522Y270905D02*
X295522D01*
X295022Y270405D01*
Y268406D01*
X295522Y267906D01*
X296522D01*
X297022Y268406D01*
Y270405D01*
X296522Y270905D01*
X298021Y267906D02*
Y270905D01*
X299521D01*
X300021Y270405D01*
Y269405D01*
X299521Y268905D01*
X298021D01*
X299021D02*
X300021Y267906D01*
X302520D02*
Y270905D01*
X301021Y269405D01*
X303020D01*
X445200Y2200D02*
Y5199D01*
X446200Y4199D01*
X447199Y5199D01*
Y2200D01*
X449698Y5199D02*
X448699D01*
X448199Y4699D01*
Y2700D01*
X448699Y2200D01*
X449698D01*
X450198Y2700D01*
Y4699D01*
X449698Y5199D01*
X451198D02*
X453197D01*
X452198D01*
Y2200D01*
X455697Y5199D02*
X454697D01*
X454197Y4699D01*
Y2700D01*
X454697Y2200D01*
X455697D01*
X456196Y2700D01*
Y4699D01*
X455697Y5199D01*
X457196Y2200D02*
Y5199D01*
X458696D01*
X459196Y4699D01*
Y3700D01*
X458696Y3200D01*
X457196D01*
X458196D02*
X459196Y2200D01*
X460195D02*
X461195D01*
X460695D01*
Y5199D01*
X460195Y4699D01*
X283700Y4200D02*
Y7199D01*
X284700Y6199D01*
X285699Y7199D01*
Y4200D01*
X288198Y7199D02*
X287199D01*
X286699Y6699D01*
Y4700D01*
X287199Y4200D01*
X288198D01*
X288698Y4700D01*
Y6699D01*
X288198Y7199D01*
X289698D02*
X291697D01*
X290698D01*
Y4200D01*
X294197Y7199D02*
X293197D01*
X292697Y6699D01*
Y4700D01*
X293197Y4200D01*
X294197D01*
X294696Y4700D01*
Y6699D01*
X294197Y7199D01*
X295696Y4200D02*
Y7199D01*
X297196D01*
X297695Y6699D01*
Y5700D01*
X297196Y5200D01*
X295696D01*
X296696D02*
X297695Y4200D01*
X300694D02*
X298695D01*
X300694Y6199D01*
Y6699D01*
X300195Y7199D01*
X299195D01*
X298695Y6699D01*
X108801Y27700D02*
X110800D01*
X111800Y28700D01*
X110800Y29699D01*
X108801D01*
Y30699D02*
X111800D01*
Y32199D01*
X111300Y32698D01*
X110800D01*
X110301Y32199D01*
Y30699D01*
Y32199D01*
X109801Y32698D01*
X109301D01*
X108801Y32199D01*
Y30699D01*
X111800Y33698D02*
X109801D01*
X108801Y34698D01*
X109801Y35697D01*
X111800D01*
X110301D01*
Y33698D01*
X108801Y36697D02*
Y38696D01*
Y37697D01*
X111800D01*
M02*
