M48
;Layer_Color=9474304
;FILE_FORMAT=2:4
INCH,TZ
;TYPE=PLATED
T1F00S00C0.0118
T2F00S00C0.0402
T3F00S00C0.1142
;TYPE=NON_PLATED
T4F00S00C0.1181
%
T01
X13624Y22237
X14950Y20750
X25370Y21729
X24950Y17550
T02
X45750Y1200
X46750
X48099Y2709
Y3891
Y6909
Y8091
Y11154
X44750Y1200
X43750
X28400Y1550
X27400
X26400
X25400
X9800Y2000
Y3000
Y4000
Y1000
X4050Y2150
Y3331
Y6350
Y7531
X4051Y10759
Y11941
X4050Y15238
Y16419
Y17600
Y18781
X4051Y21804
Y22985
Y24166
Y25347
X5500Y25050
Y24050
X13319Y16100
X14500
X17569
X18750
X18950Y25600
Y26600
X19950
X20950
X21950
X22950
X23950
Y25600
X22950
X21950
X20950
X19950
X17950
Y26600
X16950
Y25600
X25500Y25950
X26500
X27500
X28500
X32450Y23050
X33450
X34450
X35450
X37300
X38300
X39300
X40300
X40650Y26750
X39650
X41650
X42650
X48049Y25441
Y24259
X48099Y21297
Y20116
Y18935
Y17754
Y14697
Y13516
Y12335
T03
X32093Y1959
X12407
X12500Y7550
X12407Y25582
X32093
X33900Y19900
T04
X49800Y3300
Y7500
Y12000
X2350Y11350
X2349Y6941
Y2741
Y16084
Y17935
X2350Y22650
Y24500
X13909Y14399
X18159
X49800Y13850
Y18600
Y20450
X49750Y24850
M30
