G04*
G04 #@! TF.GenerationSoftware,Altium Limited,Altium Designer,21.9.2 (33)*
G04*
G04 Layer_Physical_Order=1*
G04 Layer_Color=255*
%FSLAX25Y25*%
%MOIN*%
G70*
G04*
G04 #@! TF.SameCoordinates,1158F630-F6B0-42DE-A473-F25834DE5FAC*
G04*
G04*
G04 #@! TF.FilePolarity,Positive*
G04*
G01*
G75*
%ADD22C,0.01000*%
%ADD23C,0.03000*%
%ADD24C,0.05906*%
%ADD25C,0.06102*%
%ADD26R,0.06102X0.06102*%
%ADD27R,0.05394X0.05394*%
%ADD28C,0.05394*%
%ADD29C,0.11811*%
%ADD30R,0.06102X0.06102*%
%ADD31R,0.05394X0.05394*%
%ADD32C,0.15748*%
%ADD33C,0.02362*%
D22*
X249500Y175500D02*
X253500D01*
X282031Y146968D02*
X480992D01*
X253500Y175500D02*
X282031Y146968D01*
X219500Y193000D02*
X289154Y123346D01*
X480992D01*
X219500Y193000D02*
Y256000D01*
X253699Y217291D02*
X258021Y212968D01*
X480992D01*
X255500Y187000D02*
X477457D01*
X479803Y189347D01*
X239500Y203000D02*
X255500Y187000D01*
X479803Y189347D02*
X480992D01*
X239500Y203000D02*
Y256000D01*
X90000Y250500D02*
X133189Y207311D01*
Y161000D02*
Y207311D01*
X55000Y250500D02*
X90000D01*
X158000Y207500D02*
X189500Y239000D01*
Y256000D01*
X149500Y207500D02*
X158000D01*
X136428Y222187D02*
X155187D01*
X179500Y246500D01*
Y256000D01*
X136242Y222373D02*
X136428Y222187D01*
D23*
X147500Y126000D02*
X186000D01*
X194500Y134500D01*
Y158000D01*
X98000Y76500D02*
X147500Y126000D01*
X187839Y160661D02*
X191840D01*
X187500Y161000D02*
X187839Y160661D01*
X191840D02*
X194500Y158000D01*
X98000Y40000D02*
Y76500D01*
Y30000D02*
Y40000D01*
X279000Y15500D02*
X284000D01*
X274000D02*
X279000D01*
Y46500D02*
X313405Y80905D01*
X480992D01*
X279000Y15500D02*
Y46500D01*
X462500Y12000D02*
X467500D01*
X457500D02*
X462500D01*
X470405Y38906D02*
X480992D01*
X462500Y31000D02*
X470405Y38906D01*
X462500Y12000D02*
Y31000D01*
D24*
X498000Y75000D02*
D03*
Y33000D02*
D03*
X497500Y248500D02*
D03*
X181595Y143992D02*
D03*
X139094D02*
D03*
X23492Y27406D02*
D03*
Y69406D02*
D03*
X23500Y113500D02*
D03*
D25*
X480992Y80905D02*
D03*
Y38906D02*
D03*
X480492Y254405D02*
D03*
X187500Y161000D02*
D03*
X145000D02*
D03*
X40500Y21500D02*
D03*
Y63500D02*
D03*
X40508Y107595D02*
D03*
D26*
X480992Y69095D02*
D03*
Y27095D02*
D03*
X480492Y242595D02*
D03*
X40500Y33311D02*
D03*
Y75311D02*
D03*
X40508Y119405D02*
D03*
D27*
X480992Y111535D02*
D03*
Y177535D02*
D03*
X40500Y187811D02*
D03*
X40508Y253468D02*
D03*
X55000Y240500D02*
D03*
X98000Y10000D02*
D03*
D28*
X480992Y123346D02*
D03*
Y135158D02*
D03*
Y146968D02*
D03*
Y189347D02*
D03*
Y201157D02*
D03*
Y212968D02*
D03*
X40500Y176000D02*
D03*
Y164189D02*
D03*
Y152378D02*
D03*
X40508Y241657D02*
D03*
Y229847D02*
D03*
Y218035D02*
D03*
X229500Y266000D02*
D03*
X219500D02*
D03*
X209500D02*
D03*
X199500D02*
D03*
X189500D02*
D03*
X179500D02*
D03*
X169500D02*
D03*
Y256000D02*
D03*
X179500D02*
D03*
X189500D02*
D03*
X199500D02*
D03*
X209500D02*
D03*
X219500D02*
D03*
X229500D02*
D03*
X239500D02*
D03*
X55000Y250500D02*
D03*
X403000Y230500D02*
D03*
X393000D02*
D03*
X406500Y267500D02*
D03*
X396500D02*
D03*
X285000Y259500D02*
D03*
X275000D02*
D03*
X354500Y230500D02*
D03*
X344500D02*
D03*
X264000Y15500D02*
D03*
X254000D02*
D03*
X447500Y12000D02*
D03*
X437500D02*
D03*
X265000Y259500D02*
D03*
X334500Y230500D02*
D03*
X274000Y15500D02*
D03*
X457500Y12000D02*
D03*
X98000Y30000D02*
D03*
Y40000D02*
D03*
X416500Y267500D02*
D03*
X98000Y20000D02*
D03*
X383000Y230500D02*
D03*
D29*
X498000Y120000D02*
D03*
Y138504D02*
D03*
Y186000D02*
D03*
Y204504D02*
D03*
X23492Y179347D02*
D03*
Y160843D02*
D03*
X23500Y245004D02*
D03*
Y226500D02*
D03*
D30*
X175689Y161000D02*
D03*
X133189D02*
D03*
D31*
X239500Y266000D02*
D03*
X255000Y259500D02*
D03*
X324500Y230500D02*
D03*
X284000Y15500D02*
D03*
X467500Y12000D02*
D03*
X426500Y267500D02*
D03*
X373000Y230500D02*
D03*
D32*
X125000Y75500D02*
D03*
X339000Y199000D02*
D03*
X320925Y255815D02*
D03*
Y19594D02*
D03*
X124075D02*
D03*
Y255815D02*
D03*
D33*
X249500Y175500D02*
D03*
X253699Y217291D02*
D03*
X149500Y207500D02*
D03*
X136242Y222373D02*
D03*
M02*
