G04*
G04 #@! TF.GenerationSoftware,Altium Limited,Altium Designer,21.9.2 (33)*
G04*
G04 Layer_Physical_Order=3*
G04 Layer_Color=36540*
%FSLAX25Y25*%
%MOIN*%
G70*
G04*
G04 #@! TF.SameCoordinates,1158F630-F6B0-42DE-A473-F25834DE5FAC*
G04*
G04*
G04 #@! TF.FilePolarity,Positive*
G04*
G01*
G75*
%ADD25C,0.06102*%
%ADD26R,0.06102X0.06102*%
%ADD27R,0.05394X0.05394*%
%ADD28C,0.05394*%
%ADD30R,0.06102X0.06102*%
%ADD31R,0.05394X0.05394*%
%ADD32C,0.15748*%
G36*
X520197Y803D02*
X803D01*
X803Y274788D01*
X520197D01*
X520197Y803D01*
D02*
G37*
%LPC*%
G36*
X417484Y271063D02*
Y268484D01*
X420063D01*
X419945Y268927D01*
X419458Y269770D01*
X418770Y270458D01*
X417927Y270945D01*
X417484Y271063D01*
D02*
G37*
G36*
X430197Y271197D02*
X427484D01*
Y268484D01*
X430197D01*
Y271197D01*
D02*
G37*
G36*
X415516Y271063D02*
X415073Y270945D01*
X414230Y270458D01*
X413542Y269770D01*
X413055Y268927D01*
X412936Y268484D01*
X415516D01*
Y271063D01*
D02*
G37*
G36*
X425516Y271197D02*
X422803D01*
Y268484D01*
X425516D01*
Y271197D01*
D02*
G37*
G36*
X200484Y269564D02*
Y266984D01*
X203064D01*
X202945Y267427D01*
X202458Y268270D01*
X201770Y268958D01*
X200927Y269445D01*
X200484Y269564D01*
D02*
G37*
G36*
X230484D02*
Y266984D01*
X233064D01*
X232945Y267427D01*
X232458Y268270D01*
X231770Y268958D01*
X230927Y269445D01*
X230484Y269564D01*
D02*
G37*
G36*
X220484D02*
Y266984D01*
X223063D01*
X222945Y267427D01*
X222458Y268270D01*
X221770Y268958D01*
X220927Y269445D01*
X220484Y269564D01*
D02*
G37*
G36*
X210484D02*
Y266984D01*
X213064D01*
X212945Y267427D01*
X212458Y268270D01*
X211770Y268958D01*
X210927Y269445D01*
X210484Y269564D01*
D02*
G37*
G36*
X180484D02*
Y266984D01*
X183063D01*
X182945Y267427D01*
X182458Y268270D01*
X181770Y268958D01*
X180927Y269445D01*
X180484Y269564D01*
D02*
G37*
G36*
X170484D02*
Y266984D01*
X173064D01*
X172945Y267427D01*
X172458Y268270D01*
X171770Y268958D01*
X170927Y269445D01*
X170484Y269564D01*
D02*
G37*
G36*
X243197Y269697D02*
X240484D01*
Y266984D01*
X243197D01*
Y269697D01*
D02*
G37*
G36*
X190484Y269564D02*
Y266984D01*
X193063D01*
X192945Y267427D01*
X192458Y268270D01*
X191770Y268958D01*
X190927Y269445D01*
X190484Y269564D01*
D02*
G37*
G36*
X198516D02*
X198073Y269445D01*
X197230Y268958D01*
X196542Y268270D01*
X196055Y267427D01*
X195937Y266984D01*
X198516D01*
Y269564D01*
D02*
G37*
G36*
X218516D02*
X218073Y269445D01*
X217230Y268958D01*
X216542Y268270D01*
X216055Y267427D01*
X215936Y266984D01*
X218516D01*
Y269564D01*
D02*
G37*
G36*
X208516D02*
X208073Y269445D01*
X207230Y268958D01*
X206542Y268270D01*
X206055Y267427D01*
X205937Y266984D01*
X208516D01*
Y269564D01*
D02*
G37*
G36*
X178516D02*
X178073Y269445D01*
X177230Y268958D01*
X176542Y268270D01*
X176055Y267427D01*
X175936Y266984D01*
X178516D01*
Y269564D01*
D02*
G37*
G36*
X168516D02*
X168073Y269445D01*
X167230Y268958D01*
X166542Y268270D01*
X166055Y267427D01*
X165937Y266984D01*
X168516D01*
Y269564D01*
D02*
G37*
G36*
X228516D02*
X228073Y269445D01*
X227230Y268958D01*
X226542Y268270D01*
X226055Y267427D01*
X225937Y266984D01*
X228516D01*
Y269564D01*
D02*
G37*
G36*
X188516D02*
X188073Y269445D01*
X187230Y268958D01*
X186542Y268270D01*
X186055Y267427D01*
X185936Y266984D01*
X188516D01*
Y269564D01*
D02*
G37*
G36*
X238516Y269697D02*
X235803D01*
Y266984D01*
X238516D01*
Y269697D01*
D02*
G37*
G36*
X420063Y266516D02*
X417484D01*
Y263936D01*
X417927Y264055D01*
X418770Y264542D01*
X419458Y265230D01*
X419945Y266073D01*
X420063Y266516D01*
D02*
G37*
G36*
X415516D02*
X412936D01*
X413055Y266073D01*
X413542Y265230D01*
X414230Y264542D01*
X415073Y264055D01*
X415516Y263936D01*
Y266516D01*
D02*
G37*
G36*
X430197D02*
X427484D01*
Y263803D01*
X430197D01*
Y266516D01*
D02*
G37*
G36*
X425516D02*
X422803D01*
Y263803D01*
X425516D01*
Y266516D01*
D02*
G37*
G36*
X407011Y271378D02*
X405990D01*
X405003Y271114D01*
X404119Y270603D01*
X403397Y269881D01*
X402886Y268997D01*
X402622Y268010D01*
Y266989D01*
X402886Y266003D01*
X403397Y265119D01*
X404119Y264397D01*
X405003Y263886D01*
X405990Y263622D01*
X407011D01*
X407997Y263886D01*
X408881Y264397D01*
X409603Y265119D01*
X410114Y266003D01*
X410378Y266989D01*
Y268010D01*
X410114Y268997D01*
X409603Y269881D01*
X408881Y270603D01*
X407997Y271114D01*
X407011Y271378D01*
D02*
G37*
G36*
X397010D02*
X395989D01*
X395003Y271114D01*
X394119Y270603D01*
X393397Y269881D01*
X392886Y268997D01*
X392622Y268010D01*
Y266989D01*
X392886Y266003D01*
X393397Y265119D01*
X394119Y264397D01*
X395003Y263886D01*
X395989Y263622D01*
X397010D01*
X397997Y263886D01*
X398881Y264397D01*
X399603Y265119D01*
X400114Y266003D01*
X400378Y266989D01*
Y268010D01*
X400114Y268997D01*
X399603Y269881D01*
X398881Y270603D01*
X397997Y271114D01*
X397010Y271378D01*
D02*
G37*
G36*
X233064Y265016D02*
X230484D01*
Y262437D01*
X230927Y262555D01*
X231770Y263042D01*
X232458Y263730D01*
X232945Y264573D01*
X233064Y265016D01*
D02*
G37*
G36*
X223063D02*
X220484D01*
Y262437D01*
X220927Y262555D01*
X221770Y263042D01*
X222458Y263730D01*
X222945Y264573D01*
X223063Y265016D01*
D02*
G37*
G36*
X213064D02*
X210484D01*
Y262437D01*
X210927Y262555D01*
X211770Y263042D01*
X212458Y263730D01*
X212945Y264573D01*
X213064Y265016D01*
D02*
G37*
G36*
X203064D02*
X200484D01*
Y262437D01*
X200927Y262555D01*
X201770Y263042D01*
X202458Y263730D01*
X202945Y264573D01*
X203064Y265016D01*
D02*
G37*
G36*
X193063D02*
X190484D01*
Y262437D01*
X190927Y262555D01*
X191770Y263042D01*
X192458Y263730D01*
X192945Y264573D01*
X193063Y265016D01*
D02*
G37*
G36*
X183063D02*
X180484D01*
Y262437D01*
X180927Y262555D01*
X181770Y263042D01*
X182458Y263730D01*
X182945Y264573D01*
X183063Y265016D01*
D02*
G37*
G36*
X173064D02*
X170484D01*
Y262437D01*
X170927Y262555D01*
X171770Y263042D01*
X172458Y263730D01*
X172945Y264573D01*
X173064Y265016D01*
D02*
G37*
G36*
X228516D02*
X225937D01*
X226055Y264573D01*
X226542Y263730D01*
X227230Y263042D01*
X228073Y262555D01*
X228516Y262437D01*
Y265016D01*
D02*
G37*
G36*
X218516D02*
X215936D01*
X216055Y264573D01*
X216542Y263730D01*
X217230Y263042D01*
X218073Y262555D01*
X218516Y262437D01*
Y265016D01*
D02*
G37*
G36*
X208516D02*
X205937D01*
X206055Y264573D01*
X206542Y263730D01*
X207230Y263042D01*
X208073Y262555D01*
X208516Y262437D01*
Y265016D01*
D02*
G37*
G36*
X198516D02*
X195937D01*
X196055Y264573D01*
X196542Y263730D01*
X197230Y263042D01*
X198073Y262555D01*
X198516Y262437D01*
Y265016D01*
D02*
G37*
G36*
X188516D02*
X185936D01*
X186055Y264573D01*
X186542Y263730D01*
X187230Y263042D01*
X188073Y262555D01*
X188516Y262437D01*
Y265016D01*
D02*
G37*
G36*
X178516D02*
X175936D01*
X176055Y264573D01*
X176542Y263730D01*
X177230Y263042D01*
X178073Y262555D01*
X178516Y262437D01*
Y265016D01*
D02*
G37*
G36*
X168516D02*
X165937D01*
X166055Y264573D01*
X166542Y263730D01*
X167230Y263042D01*
X168073Y262555D01*
X168516Y262437D01*
Y265016D01*
D02*
G37*
G36*
X243197D02*
X240484D01*
Y262303D01*
X243197D01*
Y265016D01*
D02*
G37*
G36*
X238516D02*
X235803D01*
Y262303D01*
X238516D01*
Y265016D01*
D02*
G37*
G36*
X285510Y263378D02*
X284489D01*
X283503Y263114D01*
X282619Y262603D01*
X281897Y261881D01*
X281386Y260997D01*
X281122Y260011D01*
Y258990D01*
X281386Y258003D01*
X281897Y257119D01*
X282619Y256397D01*
X283503Y255886D01*
X284489Y255622D01*
X285510D01*
X286497Y255886D01*
X287381Y256397D01*
X288103Y257119D01*
X288614Y258003D01*
X288878Y258990D01*
Y260011D01*
X288614Y260997D01*
X288103Y261881D01*
X287381Y262603D01*
X286497Y263114D01*
X285510Y263378D01*
D02*
G37*
G36*
X275511D02*
X274489D01*
X273503Y263114D01*
X272619Y262603D01*
X271897Y261881D01*
X271386Y260997D01*
X271122Y260011D01*
Y258990D01*
X271386Y258003D01*
X271897Y257119D01*
X272619Y256397D01*
X273503Y255886D01*
X274489Y255622D01*
X275511D01*
X276497Y255886D01*
X277381Y256397D01*
X278103Y257119D01*
X278614Y258003D01*
X278878Y258990D01*
Y260011D01*
X278614Y260997D01*
X278103Y261881D01*
X277381Y262603D01*
X276497Y263114D01*
X275511Y263378D01*
D02*
G37*
G36*
X265511D02*
X264490D01*
X263503Y263114D01*
X262619Y262603D01*
X261897Y261881D01*
X261386Y260997D01*
X261122Y260011D01*
Y258990D01*
X261386Y258003D01*
X261897Y257119D01*
X262619Y256397D01*
X263503Y255886D01*
X264490Y255622D01*
X265511D01*
X266497Y255886D01*
X267381Y256397D01*
X268103Y257119D01*
X268614Y258003D01*
X268878Y258990D01*
Y260011D01*
X268614Y260997D01*
X268103Y261881D01*
X267381Y262603D01*
X266497Y263114D01*
X265511Y263378D01*
D02*
G37*
G36*
X258878D02*
X251122D01*
Y255622D01*
X258878D01*
Y263378D01*
D02*
G37*
G36*
X44205Y257165D02*
X41492D01*
Y254453D01*
X44205D01*
Y257165D01*
D02*
G37*
G36*
X39524D02*
X36811D01*
Y254453D01*
X39524D01*
Y257165D01*
D02*
G37*
G36*
X240010Y259878D02*
X238989D01*
X238003Y259614D01*
X237119Y259103D01*
X236397Y258381D01*
X235886Y257497D01*
X235622Y256510D01*
Y255489D01*
X235886Y254503D01*
X236397Y253619D01*
X237119Y252897D01*
X238003Y252386D01*
X238989Y252122D01*
X240010D01*
X240997Y252386D01*
X241881Y252897D01*
X242603Y253619D01*
X243114Y254503D01*
X243378Y255489D01*
Y256510D01*
X243114Y257497D01*
X242603Y258381D01*
X241881Y259103D01*
X240997Y259614D01*
X240010Y259878D01*
D02*
G37*
G36*
X230011D02*
X228990D01*
X228003Y259614D01*
X227119Y259103D01*
X226397Y258381D01*
X225886Y257497D01*
X225622Y256510D01*
Y255489D01*
X225886Y254503D01*
X226397Y253619D01*
X227119Y252897D01*
X228003Y252386D01*
X228990Y252122D01*
X230011D01*
X230997Y252386D01*
X231881Y252897D01*
X232603Y253619D01*
X233114Y254503D01*
X233378Y255489D01*
Y256510D01*
X233114Y257497D01*
X232603Y258381D01*
X231881Y259103D01*
X230997Y259614D01*
X230011Y259878D01*
D02*
G37*
G36*
X220010D02*
X218989D01*
X218003Y259614D01*
X217119Y259103D01*
X216397Y258381D01*
X215886Y257497D01*
X215622Y256510D01*
Y255489D01*
X215886Y254503D01*
X216397Y253619D01*
X217119Y252897D01*
X218003Y252386D01*
X218989Y252122D01*
X220010D01*
X220997Y252386D01*
X221881Y252897D01*
X222603Y253619D01*
X223114Y254503D01*
X223378Y255489D01*
Y256510D01*
X223114Y257497D01*
X222603Y258381D01*
X221881Y259103D01*
X220997Y259614D01*
X220010Y259878D01*
D02*
G37*
G36*
X210011D02*
X208990D01*
X208003Y259614D01*
X207119Y259103D01*
X206397Y258381D01*
X205886Y257497D01*
X205622Y256510D01*
Y255489D01*
X205886Y254503D01*
X206397Y253619D01*
X207119Y252897D01*
X208003Y252386D01*
X208990Y252122D01*
X210011D01*
X210997Y252386D01*
X211881Y252897D01*
X212603Y253619D01*
X213114Y254503D01*
X213378Y255489D01*
Y256510D01*
X213114Y257497D01*
X212603Y258381D01*
X211881Y259103D01*
X210997Y259614D01*
X210011Y259878D01*
D02*
G37*
G36*
X200010D02*
X198989D01*
X198003Y259614D01*
X197119Y259103D01*
X196397Y258381D01*
X195886Y257497D01*
X195622Y256510D01*
Y255489D01*
X195886Y254503D01*
X196397Y253619D01*
X197119Y252897D01*
X198003Y252386D01*
X198989Y252122D01*
X200010D01*
X200997Y252386D01*
X201881Y252897D01*
X202603Y253619D01*
X203114Y254503D01*
X203378Y255489D01*
Y256510D01*
X203114Y257497D01*
X202603Y258381D01*
X201881Y259103D01*
X200997Y259614D01*
X200010Y259878D01*
D02*
G37*
G36*
X190010D02*
X188989D01*
X188003Y259614D01*
X187119Y259103D01*
X186397Y258381D01*
X185886Y257497D01*
X185622Y256510D01*
Y255489D01*
X185886Y254503D01*
X186397Y253619D01*
X187119Y252897D01*
X188003Y252386D01*
X188989Y252122D01*
X190010D01*
X190997Y252386D01*
X191881Y252897D01*
X192603Y253619D01*
X193114Y254503D01*
X193378Y255489D01*
Y256510D01*
X193114Y257497D01*
X192603Y258381D01*
X191881Y259103D01*
X190997Y259614D01*
X190010Y259878D01*
D02*
G37*
G36*
X180010D02*
X178990D01*
X178003Y259614D01*
X177119Y259103D01*
X176397Y258381D01*
X175886Y257497D01*
X175622Y256510D01*
Y255489D01*
X175886Y254503D01*
X176397Y253619D01*
X177119Y252897D01*
X178003Y252386D01*
X178990Y252122D01*
X180010D01*
X180997Y252386D01*
X181881Y252897D01*
X182603Y253619D01*
X183114Y254503D01*
X183378Y255489D01*
Y256510D01*
X183114Y257497D01*
X182603Y258381D01*
X181881Y259103D01*
X180997Y259614D01*
X180010Y259878D01*
D02*
G37*
G36*
X170010D02*
X168990D01*
X168003Y259614D01*
X167119Y259103D01*
X166397Y258381D01*
X165886Y257497D01*
X165622Y256510D01*
Y255489D01*
X165886Y254503D01*
X166397Y253619D01*
X167119Y252897D01*
X168003Y252386D01*
X168990Y252122D01*
X170010D01*
X170997Y252386D01*
X171881Y252897D01*
X172603Y253619D01*
X173114Y254503D01*
X173378Y255489D01*
Y256510D01*
X173114Y257497D01*
X172603Y258381D01*
X171881Y259103D01*
X170997Y259614D01*
X170010Y259878D01*
D02*
G37*
G36*
X481049Y258638D02*
X479935D01*
X478859Y258349D01*
X477893Y257792D01*
X477106Y257004D01*
X476548Y256039D01*
X476260Y254963D01*
Y253848D01*
X476548Y252772D01*
X477106Y251807D01*
X477893Y251019D01*
X478859Y250462D01*
X479935Y250173D01*
X481049D01*
X482126Y250462D01*
X483091Y251019D01*
X483879Y251807D01*
X484436Y252772D01*
X484724Y253848D01*
Y254963D01*
X484436Y256039D01*
X483879Y257004D01*
X483091Y257792D01*
X482126Y258349D01*
X481049Y258638D01*
D02*
G37*
G36*
X44205Y252484D02*
X41492D01*
Y249772D01*
X44205D01*
Y252484D01*
D02*
G37*
G36*
X39524D02*
X36811D01*
Y249772D01*
X39524D01*
Y252484D01*
D02*
G37*
G36*
X321817Y264870D02*
X320033D01*
X318284Y264522D01*
X316636Y263840D01*
X315153Y262848D01*
X313892Y261587D01*
X312901Y260104D01*
X312218Y258456D01*
X311870Y256707D01*
Y254923D01*
X312218Y253174D01*
X312901Y251526D01*
X313892Y250043D01*
X315153Y248781D01*
X316636Y247790D01*
X318284Y247108D01*
X320033Y246760D01*
X321817D01*
X323567Y247108D01*
X325214Y247790D01*
X326697Y248781D01*
X327959Y250043D01*
X328950Y251526D01*
X329632Y253174D01*
X329980Y254923D01*
Y256707D01*
X329632Y258456D01*
X328950Y260104D01*
X327959Y261587D01*
X326697Y262848D01*
X325214Y263840D01*
X323567Y264522D01*
X321817Y264870D01*
D02*
G37*
G36*
X124967D02*
X123183D01*
X121433Y264522D01*
X119786Y263840D01*
X118303Y262848D01*
X117041Y261587D01*
X116050Y260104D01*
X115368Y258456D01*
X115020Y256707D01*
Y254923D01*
X115368Y253174D01*
X116050Y251526D01*
X117041Y250043D01*
X118303Y248781D01*
X119786Y247790D01*
X121433Y247108D01*
X123183Y246760D01*
X124967D01*
X126716Y247108D01*
X128364Y247790D01*
X129847Y248781D01*
X131108Y250043D01*
X132099Y251526D01*
X132782Y253174D01*
X133130Y254923D01*
Y256707D01*
X132782Y258456D01*
X132099Y260104D01*
X131108Y261587D01*
X129847Y262848D01*
X128364Y263840D01*
X126716Y264522D01*
X124967Y264870D01*
D02*
G37*
G36*
X55510Y254378D02*
X54489D01*
X53503Y254114D01*
X52619Y253603D01*
X51897Y252881D01*
X51386Y251997D01*
X51122Y251010D01*
Y249990D01*
X51386Y249003D01*
X51897Y248119D01*
X52619Y247397D01*
X53503Y246886D01*
X54489Y246622D01*
X55510D01*
X56497Y246886D01*
X57381Y247397D01*
X58103Y248119D01*
X58614Y249003D01*
X58878Y249990D01*
Y251010D01*
X58614Y251997D01*
X58103Y252881D01*
X57381Y253603D01*
X56497Y254114D01*
X55510Y254378D01*
D02*
G37*
G36*
X484543Y246646D02*
X481476D01*
Y243579D01*
X484543D01*
Y246646D01*
D02*
G37*
G36*
X479508D02*
X476441D01*
Y243579D01*
X479508D01*
Y246646D01*
D02*
G37*
G36*
X58697Y244197D02*
X55984D01*
Y241484D01*
X58697D01*
Y244197D01*
D02*
G37*
G36*
X54016D02*
X51303D01*
Y241484D01*
X54016D01*
Y244197D01*
D02*
G37*
G36*
X498198Y255587D02*
X496802D01*
X495433Y255314D01*
X494143Y254780D01*
X492982Y254005D01*
X491995Y253017D01*
X491220Y251857D01*
X490686Y250567D01*
X490413Y249198D01*
Y247802D01*
X490686Y246433D01*
X491220Y245143D01*
X491995Y243983D01*
X492982Y242996D01*
X494143Y242220D01*
X495433Y241686D01*
X496802Y241413D01*
X498198D01*
X499567Y241686D01*
X500857Y242220D01*
X502017Y242996D01*
X503005Y243983D01*
X503780Y245143D01*
X504314Y246433D01*
X504587Y247802D01*
Y249198D01*
X504314Y250567D01*
X503780Y251857D01*
X503005Y253017D01*
X502017Y254005D01*
X500857Y254780D01*
X499567Y255314D01*
X498198Y255587D01*
D02*
G37*
G36*
X484543Y241610D02*
X481476D01*
Y238543D01*
X484543D01*
Y241610D01*
D02*
G37*
G36*
X479508D02*
X476441D01*
Y238543D01*
X479508D01*
Y241610D01*
D02*
G37*
G36*
X24198Y252091D02*
X22802D01*
X21433Y251818D01*
X20143Y251284D01*
X18983Y250508D01*
X17996Y249521D01*
X17220Y248361D01*
X16686Y247071D01*
X16413Y245702D01*
Y244306D01*
X16686Y242937D01*
X17220Y241647D01*
X17996Y240487D01*
X18983Y239499D01*
X20143Y238724D01*
X21433Y238190D01*
X22802Y237917D01*
X24198D01*
X25567Y238190D01*
X26857Y238724D01*
X28018Y239499D01*
X29004Y240487D01*
X29780Y241647D01*
X30314Y242937D01*
X30587Y244306D01*
Y245702D01*
X30314Y247071D01*
X29780Y248361D01*
X29004Y249521D01*
X28018Y250508D01*
X26857Y251284D01*
X25567Y251818D01*
X24198Y252091D01*
D02*
G37*
G36*
X41018Y245535D02*
X39997D01*
X39011Y245271D01*
X38127Y244761D01*
X37405Y244039D01*
X36894Y243154D01*
X36630Y242168D01*
Y241147D01*
X36894Y240161D01*
X37405Y239276D01*
X38127Y238554D01*
X39011Y238044D01*
X39997Y237779D01*
X41018D01*
X42005Y238044D01*
X42889Y238554D01*
X43611Y239276D01*
X44122Y240161D01*
X44386Y241147D01*
Y242168D01*
X44122Y243154D01*
X43611Y244039D01*
X42889Y244761D01*
X42005Y245271D01*
X41018Y245535D01*
D02*
G37*
G36*
X58697Y239516D02*
X55984D01*
Y236803D01*
X58697D01*
Y239516D01*
D02*
G37*
G36*
X54016D02*
X51303D01*
Y236803D01*
X54016D01*
Y239516D01*
D02*
G37*
G36*
X383984Y234064D02*
Y231484D01*
X386563D01*
X386445Y231927D01*
X385958Y232770D01*
X385270Y233458D01*
X384427Y233945D01*
X383984Y234064D01*
D02*
G37*
G36*
X382016D02*
X381573Y233945D01*
X380730Y233458D01*
X380042Y232770D01*
X379555Y231927D01*
X379436Y231484D01*
X382016D01*
Y234064D01*
D02*
G37*
G36*
X376697Y234197D02*
X373984D01*
Y231484D01*
X376697D01*
Y234197D01*
D02*
G37*
G36*
X372016D02*
X369303D01*
Y231484D01*
X372016D01*
Y234197D01*
D02*
G37*
G36*
X41492Y233410D02*
Y230831D01*
X44071D01*
X43953Y231273D01*
X43466Y232116D01*
X42778Y232805D01*
X41935Y233291D01*
X41492Y233410D01*
D02*
G37*
G36*
X39524D02*
X39081Y233291D01*
X38238Y232805D01*
X37550Y232116D01*
X37063Y231273D01*
X36944Y230831D01*
X39524D01*
Y233410D01*
D02*
G37*
G36*
X386563Y229516D02*
X383984D01*
Y226937D01*
X384427Y227055D01*
X385270Y227542D01*
X385958Y228230D01*
X386445Y229073D01*
X386563Y229516D01*
D02*
G37*
G36*
X382016D02*
X379436D01*
X379555Y229073D01*
X380042Y228230D01*
X380730Y227542D01*
X381573Y227055D01*
X382016Y226937D01*
Y229516D01*
D02*
G37*
G36*
X376697D02*
X373984D01*
Y226803D01*
X376697D01*
Y229516D01*
D02*
G37*
G36*
X372016D02*
X369303D01*
Y226803D01*
X372016D01*
Y229516D01*
D02*
G37*
G36*
X403511Y234378D02*
X402490D01*
X401503Y234114D01*
X400619Y233603D01*
X399897Y232881D01*
X399386Y231997D01*
X399122Y231011D01*
Y229990D01*
X399386Y229003D01*
X399897Y228119D01*
X400619Y227397D01*
X401503Y226886D01*
X402490Y226622D01*
X403511D01*
X404497Y226886D01*
X405381Y227397D01*
X406103Y228119D01*
X406614Y229003D01*
X406878Y229990D01*
Y231011D01*
X406614Y231997D01*
X406103Y232881D01*
X405381Y233603D01*
X404497Y234114D01*
X403511Y234378D01*
D02*
G37*
G36*
X393511D02*
X392490D01*
X391503Y234114D01*
X390619Y233603D01*
X389897Y232881D01*
X389386Y231997D01*
X389122Y231011D01*
Y229990D01*
X389386Y229003D01*
X389897Y228119D01*
X390619Y227397D01*
X391503Y226886D01*
X392490Y226622D01*
X393511D01*
X394497Y226886D01*
X395381Y227397D01*
X396103Y228119D01*
X396614Y229003D01*
X396878Y229990D01*
Y231011D01*
X396614Y231997D01*
X396103Y232881D01*
X395381Y233603D01*
X394497Y234114D01*
X393511Y234378D01*
D02*
G37*
G36*
X355011D02*
X353990D01*
X353003Y234114D01*
X352119Y233603D01*
X351397Y232881D01*
X350886Y231997D01*
X350622Y231011D01*
Y229990D01*
X350886Y229003D01*
X351397Y228119D01*
X352119Y227397D01*
X353003Y226886D01*
X353990Y226622D01*
X355011D01*
X355997Y226886D01*
X356881Y227397D01*
X357603Y228119D01*
X358114Y229003D01*
X358378Y229990D01*
Y231011D01*
X358114Y231997D01*
X357603Y232881D01*
X356881Y233603D01*
X355997Y234114D01*
X355011Y234378D01*
D02*
G37*
G36*
X345010D02*
X343989D01*
X343003Y234114D01*
X342119Y233603D01*
X341397Y232881D01*
X340886Y231997D01*
X340622Y231011D01*
Y229990D01*
X340886Y229003D01*
X341397Y228119D01*
X342119Y227397D01*
X343003Y226886D01*
X343989Y226622D01*
X345010D01*
X345997Y226886D01*
X346881Y227397D01*
X347603Y228119D01*
X348114Y229003D01*
X348378Y229990D01*
Y231011D01*
X348114Y231997D01*
X347603Y232881D01*
X346881Y233603D01*
X345997Y234114D01*
X345010Y234378D01*
D02*
G37*
G36*
X335011D02*
X333990D01*
X333003Y234114D01*
X332119Y233603D01*
X331397Y232881D01*
X330886Y231997D01*
X330622Y231011D01*
Y229990D01*
X330886Y229003D01*
X331397Y228119D01*
X332119Y227397D01*
X333003Y226886D01*
X333990Y226622D01*
X335011D01*
X335997Y226886D01*
X336881Y227397D01*
X337603Y228119D01*
X338114Y229003D01*
X338378Y229990D01*
Y231011D01*
X338114Y231997D01*
X337603Y232881D01*
X336881Y233603D01*
X335997Y234114D01*
X335011Y234378D01*
D02*
G37*
G36*
X328378D02*
X320622D01*
Y226622D01*
X328378D01*
Y234378D01*
D02*
G37*
G36*
X44071Y228862D02*
X41492D01*
Y226283D01*
X41935Y226401D01*
X42778Y226888D01*
X43466Y227576D01*
X43953Y228419D01*
X44071Y228862D01*
D02*
G37*
G36*
X39524D02*
X36944D01*
X37063Y228419D01*
X37550Y227576D01*
X38238Y226888D01*
X39081Y226401D01*
X39524Y226283D01*
Y228862D01*
D02*
G37*
G36*
X136712Y224736D02*
X135772D01*
X134904Y224376D01*
X134239Y223711D01*
X133879Y222843D01*
Y221903D01*
X134239Y221035D01*
X134904Y220371D01*
X135772Y220011D01*
X136712D01*
X137580Y220371D01*
X138244Y221035D01*
X138604Y221903D01*
Y222843D01*
X138244Y223711D01*
X137580Y224376D01*
X136712Y224736D01*
D02*
G37*
G36*
X24198Y233587D02*
X22802D01*
X21433Y233314D01*
X20143Y232780D01*
X18983Y232004D01*
X17996Y231017D01*
X17220Y229857D01*
X16686Y228567D01*
X16413Y227198D01*
Y225802D01*
X16686Y224433D01*
X17220Y223143D01*
X17996Y221983D01*
X18983Y220995D01*
X20143Y220220D01*
X21433Y219686D01*
X22802Y219413D01*
X24198D01*
X25567Y219686D01*
X26857Y220220D01*
X28018Y220995D01*
X29004Y221983D01*
X29780Y223143D01*
X30314Y224433D01*
X30587Y225802D01*
Y227198D01*
X30314Y228567D01*
X29780Y229857D01*
X29004Y231017D01*
X28018Y232004D01*
X26857Y232780D01*
X25567Y233314D01*
X24198Y233587D01*
D02*
G37*
G36*
X254169Y219653D02*
X253229D01*
X252361Y219294D01*
X251696Y218629D01*
X251336Y217761D01*
Y216821D01*
X251696Y215953D01*
X252361Y215289D01*
X253229Y214929D01*
X254169D01*
X255037Y215289D01*
X255701Y215953D01*
X256061Y216821D01*
Y217761D01*
X255701Y218629D01*
X255037Y219294D01*
X254169Y219653D01*
D02*
G37*
G36*
X41018Y221913D02*
X39997D01*
X39011Y221649D01*
X38127Y221139D01*
X37405Y220417D01*
X36894Y219532D01*
X36630Y218546D01*
Y217525D01*
X36894Y216539D01*
X37405Y215654D01*
X38127Y214932D01*
X39011Y214422D01*
X39997Y214158D01*
X41018D01*
X42005Y214422D01*
X42889Y214932D01*
X43611Y215654D01*
X44122Y216539D01*
X44386Y217525D01*
Y218546D01*
X44122Y219532D01*
X43611Y220417D01*
X42889Y221139D01*
X42005Y221649D01*
X41018Y221913D01*
D02*
G37*
G36*
X481503Y216846D02*
X480482D01*
X479495Y216582D01*
X478611Y216072D01*
X477889Y215350D01*
X477379Y214465D01*
X477114Y213479D01*
Y212458D01*
X477379Y211472D01*
X477889Y210587D01*
X478611Y209865D01*
X479495Y209355D01*
X480482Y209090D01*
X481503D01*
X482489Y209355D01*
X483373Y209865D01*
X484095Y210587D01*
X484606Y211472D01*
X484870Y212458D01*
Y213479D01*
X484606Y214465D01*
X484095Y215350D01*
X483373Y216072D01*
X482489Y216582D01*
X481503Y216846D01*
D02*
G37*
G36*
X149970Y209862D02*
X149030D01*
X148162Y209503D01*
X147497Y208838D01*
X147138Y207970D01*
Y207030D01*
X147497Y206162D01*
X148162Y205497D01*
X149030Y205138D01*
X149970D01*
X150838Y205497D01*
X151503Y206162D01*
X151862Y207030D01*
Y207970D01*
X151503Y208838D01*
X150838Y209503D01*
X149970Y209862D01*
D02*
G37*
G36*
X481976Y204721D02*
Y202142D01*
X484556D01*
X484437Y202584D01*
X483950Y203427D01*
X483262Y204116D01*
X482419Y204602D01*
X481976Y204721D01*
D02*
G37*
G36*
X480008Y204721D02*
X479565Y204602D01*
X478722Y204116D01*
X478034Y203427D01*
X477547Y202584D01*
X477429Y202142D01*
X480008D01*
Y204721D01*
D02*
G37*
G36*
X339984Y207852D02*
Y199984D01*
X347852D01*
X347533Y201588D01*
X346864Y203203D01*
X345893Y204657D01*
X344657Y205893D01*
X343203Y206864D01*
X341588Y207533D01*
X339984Y207852D01*
D02*
G37*
G36*
X338016D02*
X336411Y207533D01*
X334797Y206864D01*
X333343Y205893D01*
X332107Y204657D01*
X331136Y203203D01*
X330467Y201588D01*
X330148Y199984D01*
X338016D01*
Y207852D01*
D02*
G37*
G36*
X484556Y200173D02*
X481976D01*
Y197594D01*
X482419Y197713D01*
X483262Y198199D01*
X483950Y198888D01*
X484437Y199731D01*
X484556Y200173D01*
D02*
G37*
G36*
X480008D02*
X477429D01*
X477547Y199731D01*
X478034Y198888D01*
X478722Y198199D01*
X479565Y197713D01*
X480008Y197594D01*
Y200173D01*
D02*
G37*
G36*
X498698Y211591D02*
X497302D01*
X495933Y211318D01*
X494643Y210784D01*
X493482Y210009D01*
X492495Y209021D01*
X491720Y207861D01*
X491186Y206571D01*
X490913Y205202D01*
Y203806D01*
X491186Y202437D01*
X491720Y201147D01*
X492495Y199987D01*
X493482Y198999D01*
X494643Y198224D01*
X495933Y197690D01*
X497302Y197417D01*
X498698D01*
X500067Y197690D01*
X501357Y198224D01*
X502518Y198999D01*
X503505Y199987D01*
X504280Y201147D01*
X504814Y202437D01*
X505087Y203806D01*
Y205202D01*
X504814Y206571D01*
X504280Y207861D01*
X503505Y209021D01*
X502518Y210009D01*
X501357Y210784D01*
X500067Y211318D01*
X498698Y211591D01*
D02*
G37*
G36*
X347852Y198016D02*
X339984D01*
Y190148D01*
X341588Y190467D01*
X343203Y191136D01*
X344657Y192107D01*
X345893Y193343D01*
X346864Y194797D01*
X347533Y196412D01*
X347852Y198016D01*
D02*
G37*
G36*
X338016D02*
X330148D01*
X330467Y196412D01*
X331136Y194797D01*
X332107Y193343D01*
X333343Y192107D01*
X334797Y191136D01*
X336411Y190467D01*
X338016Y190148D01*
Y198016D01*
D02*
G37*
G36*
X44197Y191508D02*
X41484D01*
Y188795D01*
X44197D01*
Y191508D01*
D02*
G37*
G36*
X39516D02*
X36803D01*
Y188795D01*
X39516D01*
Y191508D01*
D02*
G37*
G36*
X481503Y193224D02*
X480482D01*
X479495Y192960D01*
X478611Y192450D01*
X477889Y191728D01*
X477379Y190843D01*
X477114Y189857D01*
Y188836D01*
X477379Y187850D01*
X477889Y186965D01*
X478611Y186243D01*
X479495Y185733D01*
X480482Y185468D01*
X481503D01*
X482489Y185733D01*
X483373Y186243D01*
X484095Y186965D01*
X484606Y187850D01*
X484870Y188836D01*
Y189857D01*
X484606Y190843D01*
X484095Y191728D01*
X483373Y192450D01*
X482489Y192960D01*
X481503Y193224D01*
D02*
G37*
G36*
X44197Y186827D02*
X41484D01*
Y184114D01*
X44197D01*
Y186827D01*
D02*
G37*
G36*
X39516D02*
X36803D01*
Y184114D01*
X39516D01*
Y186827D01*
D02*
G37*
G36*
X498698Y193087D02*
X497302D01*
X495933Y192814D01*
X494643Y192280D01*
X493482Y191505D01*
X492495Y190517D01*
X491720Y189357D01*
X491186Y188067D01*
X490913Y186698D01*
Y185302D01*
X491186Y183933D01*
X491720Y182643D01*
X492495Y181483D01*
X493482Y180496D01*
X494643Y179720D01*
X495933Y179186D01*
X497302Y178913D01*
X498698D01*
X500067Y179186D01*
X501357Y179720D01*
X502518Y180496D01*
X503505Y181483D01*
X504280Y182643D01*
X504814Y183933D01*
X505087Y185302D01*
Y186698D01*
X504814Y188067D01*
X504280Y189357D01*
X503505Y190517D01*
X502518Y191505D01*
X501357Y192280D01*
X500067Y192814D01*
X498698Y193087D01*
D02*
G37*
G36*
X484689Y181232D02*
X481976D01*
Y178520D01*
X484689D01*
Y181232D01*
D02*
G37*
G36*
X480008D02*
X477295D01*
Y178520D01*
X480008D01*
Y181232D01*
D02*
G37*
G36*
X484689Y176551D02*
X481976D01*
Y173839D01*
X484689D01*
Y176551D01*
D02*
G37*
G36*
X480008D02*
X477295D01*
Y173839D01*
X480008D01*
Y176551D01*
D02*
G37*
G36*
X249970Y177862D02*
X249030D01*
X248162Y177503D01*
X247497Y176838D01*
X247138Y175970D01*
Y175030D01*
X247497Y174162D01*
X248162Y173497D01*
X249030Y173138D01*
X249970D01*
X250838Y173497D01*
X251503Y174162D01*
X251862Y175030D01*
Y175970D01*
X251503Y176838D01*
X250838Y177503D01*
X249970Y177862D01*
D02*
G37*
G36*
X24190Y186433D02*
X22794D01*
X21425Y186161D01*
X20135Y185626D01*
X18975Y184851D01*
X17988Y183864D01*
X17212Y182703D01*
X16678Y181413D01*
X16406Y180044D01*
Y178648D01*
X16678Y177279D01*
X17212Y175990D01*
X17988Y174829D01*
X18975Y173842D01*
X20135Y173066D01*
X21425Y172532D01*
X22794Y172260D01*
X24190D01*
X25559Y172532D01*
X26849Y173066D01*
X28010Y173842D01*
X28997Y174829D01*
X29772Y175990D01*
X30306Y177279D01*
X30579Y178648D01*
Y180044D01*
X30306Y181413D01*
X29772Y182703D01*
X28997Y183864D01*
X28010Y184851D01*
X26849Y185626D01*
X25559Y186161D01*
X24190Y186433D01*
D02*
G37*
G36*
X41010Y179878D02*
X39990D01*
X39003Y179614D01*
X38119Y179103D01*
X37397Y178381D01*
X36886Y177497D01*
X36622Y176511D01*
Y175489D01*
X36886Y174503D01*
X37397Y173619D01*
X38119Y172897D01*
X39003Y172386D01*
X39990Y172122D01*
X41010D01*
X41997Y172386D01*
X42881Y172897D01*
X43603Y173619D01*
X44114Y174503D01*
X44378Y175489D01*
Y176511D01*
X44114Y177497D01*
X43603Y178381D01*
X42881Y179103D01*
X41997Y179614D01*
X41010Y179878D01*
D02*
G37*
G36*
X41484Y167753D02*
Y165173D01*
X44063D01*
X43945Y165616D01*
X43458Y166459D01*
X42770Y167147D01*
X41927Y167634D01*
X41484Y167753D01*
D02*
G37*
G36*
X39516Y167753D02*
X39073Y167634D01*
X38230Y167147D01*
X37542Y166459D01*
X37055Y165616D01*
X36937Y165173D01*
X39516D01*
Y167753D01*
D02*
G37*
G36*
X145984Y164930D02*
Y161984D01*
X148930D01*
X148775Y162564D01*
X148242Y163488D01*
X147487Y164242D01*
X146564Y164775D01*
X145984Y164930D01*
D02*
G37*
G36*
X179740Y165051D02*
X176673D01*
Y161984D01*
X179740D01*
Y165051D01*
D02*
G37*
G36*
X144016Y164930D02*
X143436Y164775D01*
X142513Y164242D01*
X141758Y163488D01*
X141225Y162564D01*
X141070Y161984D01*
X144016D01*
Y164930D01*
D02*
G37*
G36*
X174705Y165051D02*
X171638D01*
Y161984D01*
X174705D01*
Y165051D01*
D02*
G37*
G36*
X39516Y163205D02*
X36937D01*
X37055Y162762D01*
X37542Y161919D01*
X38230Y161231D01*
X39073Y160744D01*
X39516Y160625D01*
Y163205D01*
D02*
G37*
G36*
X44063D02*
X41484D01*
Y160625D01*
X41927Y160744D01*
X42770Y161231D01*
X43458Y161919D01*
X43945Y162762D01*
X44063Y163205D01*
D02*
G37*
G36*
X148930Y160016D02*
X145984D01*
Y157070D01*
X146564Y157225D01*
X147487Y157758D01*
X148242Y158512D01*
X148775Y159436D01*
X148930Y160016D01*
D02*
G37*
G36*
X144016D02*
X141070D01*
X141225Y159436D01*
X141758Y158512D01*
X142513Y157758D01*
X143436Y157225D01*
X144016Y157070D01*
Y160016D01*
D02*
G37*
G36*
X179740D02*
X176673D01*
Y156949D01*
X179740D01*
Y160016D01*
D02*
G37*
G36*
X174705D02*
X171638D01*
Y156949D01*
X174705D01*
Y160016D01*
D02*
G37*
G36*
X188057Y165232D02*
X186943D01*
X185866Y164944D01*
X184901Y164387D01*
X184113Y163599D01*
X183556Y162634D01*
X183268Y161557D01*
Y160443D01*
X183556Y159366D01*
X184113Y158401D01*
X184901Y157613D01*
X185866Y157056D01*
X186943Y156768D01*
X188057D01*
X189134Y157056D01*
X190099Y157613D01*
X190887Y158401D01*
X191444Y159366D01*
X191732Y160443D01*
Y161557D01*
X191444Y162634D01*
X190887Y163599D01*
X190099Y164387D01*
X189134Y164944D01*
X188057Y165232D01*
D02*
G37*
G36*
X137421D02*
X128957D01*
Y156768D01*
X137421D01*
Y165232D01*
D02*
G37*
G36*
X24190Y167929D02*
X22794D01*
X21425Y167657D01*
X20135Y167123D01*
X18975Y166347D01*
X17988Y165360D01*
X17212Y164199D01*
X16678Y162910D01*
X16406Y161540D01*
Y160145D01*
X16678Y158775D01*
X17212Y157486D01*
X17988Y156325D01*
X18975Y155338D01*
X20135Y154562D01*
X21425Y154028D01*
X22794Y153756D01*
X24190D01*
X25559Y154028D01*
X26849Y154562D01*
X28010Y155338D01*
X28997Y156325D01*
X29772Y157486D01*
X30306Y158775D01*
X30579Y160145D01*
Y161540D01*
X30306Y162910D01*
X29772Y164199D01*
X28997Y165360D01*
X28010Y166347D01*
X26849Y167123D01*
X25559Y167657D01*
X24190Y167929D01*
D02*
G37*
G36*
X41010Y156256D02*
X39990D01*
X39003Y155992D01*
X38119Y155481D01*
X37397Y154759D01*
X36886Y153875D01*
X36622Y152889D01*
Y151867D01*
X36886Y150881D01*
X37397Y149997D01*
X38119Y149275D01*
X39003Y148764D01*
X39990Y148500D01*
X41010D01*
X41997Y148764D01*
X42881Y149275D01*
X43603Y149997D01*
X44114Y150881D01*
X44378Y151867D01*
Y152889D01*
X44114Y153875D01*
X43603Y154759D01*
X42881Y155481D01*
X41997Y155992D01*
X41010Y156256D01*
D02*
G37*
G36*
X481503Y150847D02*
X480482D01*
X479495Y150582D01*
X478611Y150072D01*
X477889Y149350D01*
X477379Y148465D01*
X477114Y147479D01*
Y146458D01*
X477379Y145472D01*
X477889Y144587D01*
X478611Y143865D01*
X479495Y143355D01*
X480482Y143091D01*
X481503D01*
X482489Y143355D01*
X483373Y143865D01*
X484095Y144587D01*
X484606Y145472D01*
X484870Y146458D01*
Y147479D01*
X484606Y148465D01*
X484095Y149350D01*
X483373Y150072D01*
X482489Y150582D01*
X481503Y150847D01*
D02*
G37*
G36*
X182292Y151079D02*
X180896D01*
X179527Y150806D01*
X178238Y150272D01*
X177077Y149497D01*
X176090Y148510D01*
X175314Y147349D01*
X174780Y146059D01*
X174508Y144690D01*
Y143294D01*
X174780Y141925D01*
X175314Y140635D01*
X176090Y139475D01*
X177077Y138488D01*
X178238Y137712D01*
X179527Y137178D01*
X180896Y136906D01*
X182292D01*
X183662Y137178D01*
X184951Y137712D01*
X186112Y138488D01*
X187099Y139475D01*
X187875Y140635D01*
X188409Y141925D01*
X188681Y143294D01*
Y144690D01*
X188409Y146059D01*
X187875Y147349D01*
X187099Y148510D01*
X186112Y149497D01*
X184951Y150272D01*
X183662Y150806D01*
X182292Y151079D01*
D02*
G37*
G36*
X139793D02*
X138397D01*
X137027Y150806D01*
X135738Y150272D01*
X134577Y149497D01*
X133590Y148510D01*
X132814Y147349D01*
X132280Y146059D01*
X132008Y144690D01*
Y143294D01*
X132280Y141925D01*
X132814Y140635D01*
X133590Y139475D01*
X134577Y138488D01*
X135738Y137712D01*
X137027Y137178D01*
X138397Y136906D01*
X139793D01*
X141162Y137178D01*
X142451Y137712D01*
X143612Y138488D01*
X144599Y139475D01*
X145375Y140635D01*
X145909Y141925D01*
X146181Y143294D01*
Y144690D01*
X145909Y146059D01*
X145375Y147349D01*
X144599Y148510D01*
X143612Y149497D01*
X142451Y150272D01*
X141162Y150806D01*
X139793Y151079D01*
D02*
G37*
G36*
X481976Y138721D02*
Y136142D01*
X484556D01*
X484437Y136584D01*
X483950Y137427D01*
X483262Y138116D01*
X482419Y138602D01*
X481976Y138721D01*
D02*
G37*
G36*
X480008Y138721D02*
X479565Y138602D01*
X478722Y138116D01*
X478034Y137427D01*
X477547Y136584D01*
X477429Y136142D01*
X480008D01*
Y138721D01*
D02*
G37*
G36*
X484556Y134173D02*
X481976D01*
Y131594D01*
X482419Y131713D01*
X483262Y132199D01*
X483950Y132888D01*
X484437Y133730D01*
X484556Y134173D01*
D02*
G37*
G36*
X480008D02*
X477429D01*
X477547Y133730D01*
X478034Y132888D01*
X478722Y132199D01*
X479565Y131713D01*
X480008Y131594D01*
Y134173D01*
D02*
G37*
G36*
X498698Y145590D02*
X497302D01*
X495933Y145318D01*
X494643Y144784D01*
X493482Y144009D01*
X492495Y143021D01*
X491720Y141861D01*
X491186Y140571D01*
X490913Y139202D01*
Y137806D01*
X491186Y136437D01*
X491720Y135147D01*
X492495Y133986D01*
X493482Y132999D01*
X494643Y132224D01*
X495933Y131690D01*
X497302Y131417D01*
X498698D01*
X500067Y131690D01*
X501357Y132224D01*
X502518Y132999D01*
X503505Y133986D01*
X504280Y135147D01*
X504814Y136437D01*
X505087Y137806D01*
Y139202D01*
X504814Y140571D01*
X504280Y141861D01*
X503505Y143021D01*
X502518Y144009D01*
X501357Y144784D01*
X500067Y145318D01*
X498698Y145590D01*
D02*
G37*
G36*
X481503Y127224D02*
X480482D01*
X479495Y126960D01*
X478611Y126450D01*
X477889Y125728D01*
X477379Y124843D01*
X477114Y123857D01*
Y122836D01*
X477379Y121850D01*
X477889Y120965D01*
X478611Y120243D01*
X479495Y119733D01*
X480482Y119468D01*
X481503D01*
X482489Y119733D01*
X483373Y120243D01*
X484095Y120965D01*
X484606Y121850D01*
X484870Y122836D01*
Y123857D01*
X484606Y124843D01*
X484095Y125728D01*
X483373Y126450D01*
X482489Y126960D01*
X481503Y127224D01*
D02*
G37*
G36*
X44740Y123638D02*
X36276D01*
Y115173D01*
X44740D01*
Y123638D01*
D02*
G37*
G36*
X498698Y127087D02*
X497302D01*
X495933Y126814D01*
X494643Y126280D01*
X493482Y125505D01*
X492495Y124518D01*
X491720Y123357D01*
X491186Y122067D01*
X490913Y120698D01*
Y119302D01*
X491186Y117933D01*
X491720Y116643D01*
X492495Y115482D01*
X493482Y114496D01*
X494643Y113720D01*
X495933Y113186D01*
X497302Y112913D01*
X498698D01*
X500067Y113186D01*
X501357Y113720D01*
X502518Y114496D01*
X503505Y115482D01*
X504280Y116643D01*
X504814Y117933D01*
X505087Y119302D01*
Y120698D01*
X504814Y122067D01*
X504280Y123357D01*
X503505Y124518D01*
X502518Y125505D01*
X501357Y126280D01*
X500067Y126814D01*
X498698Y127087D01*
D02*
G37*
G36*
X484689Y115232D02*
X481976D01*
Y112520D01*
X484689D01*
Y115232D01*
D02*
G37*
G36*
X480008D02*
X477295D01*
Y112520D01*
X480008D01*
Y115232D01*
D02*
G37*
G36*
X484689Y110551D02*
X481976D01*
Y107839D01*
X484689D01*
Y110551D01*
D02*
G37*
G36*
X480008D02*
X477295D01*
Y107839D01*
X480008D01*
Y110551D01*
D02*
G37*
G36*
X24198Y120587D02*
X22802D01*
X21433Y120314D01*
X20143Y119780D01*
X18983Y119004D01*
X17996Y118017D01*
X17220Y116857D01*
X16686Y115567D01*
X16413Y114198D01*
Y112802D01*
X16686Y111433D01*
X17220Y110143D01*
X17996Y108983D01*
X18983Y107995D01*
X20143Y107220D01*
X21433Y106686D01*
X22802Y106413D01*
X24198D01*
X25567Y106686D01*
X26857Y107220D01*
X28018Y107995D01*
X29004Y108983D01*
X29780Y110143D01*
X30314Y111433D01*
X30587Y112802D01*
Y114198D01*
X30314Y115567D01*
X29780Y116857D01*
X29004Y118017D01*
X28018Y119004D01*
X26857Y119780D01*
X25567Y120314D01*
X24198Y120587D01*
D02*
G37*
G36*
X41065Y111827D02*
X39951D01*
X38874Y111538D01*
X37909Y110981D01*
X37121Y110193D01*
X36564Y109228D01*
X36276Y108152D01*
Y107037D01*
X36564Y105961D01*
X37121Y104996D01*
X37909Y104208D01*
X38874Y103651D01*
X39951Y103362D01*
X41065D01*
X42142Y103651D01*
X43106Y104208D01*
X43894Y104996D01*
X44452Y105961D01*
X44740Y107037D01*
Y108152D01*
X44452Y109228D01*
X43894Y110193D01*
X43106Y110981D01*
X42142Y111538D01*
X41065Y111827D01*
D02*
G37*
G36*
X481549Y85138D02*
X480435D01*
X479358Y84849D01*
X478394Y84292D01*
X477605Y83504D01*
X477048Y82539D01*
X476760Y81463D01*
Y80348D01*
X477048Y79272D01*
X477605Y78307D01*
X478394Y77519D01*
X479358Y76962D01*
X480435Y76673D01*
X481549D01*
X482626Y76962D01*
X483591Y77519D01*
X484379Y78307D01*
X484936Y79272D01*
X485224Y80348D01*
Y81463D01*
X484936Y82539D01*
X484379Y83504D01*
X483591Y84292D01*
X482626Y84849D01*
X481549Y85138D01*
D02*
G37*
G36*
X125984Y84352D02*
Y76484D01*
X133852D01*
X133533Y78088D01*
X132864Y79703D01*
X131893Y81157D01*
X130657Y82393D01*
X129203Y83364D01*
X127588Y84033D01*
X125984Y84352D01*
D02*
G37*
G36*
X124016D02*
X122412Y84033D01*
X120797Y83364D01*
X119343Y82393D01*
X118107Y81157D01*
X117136Y79703D01*
X116467Y78088D01*
X116148Y76484D01*
X124016D01*
Y84352D01*
D02*
G37*
G36*
X44732Y79543D02*
X36268D01*
Y71079D01*
X44732D01*
Y79543D01*
D02*
G37*
G36*
X498698Y82087D02*
X497302D01*
X495933Y81814D01*
X494643Y81280D01*
X493482Y80505D01*
X492495Y79517D01*
X491720Y78357D01*
X491186Y77067D01*
X490913Y75698D01*
Y74302D01*
X491186Y72933D01*
X491720Y71643D01*
X492495Y70483D01*
X493482Y69495D01*
X494643Y68720D01*
X495933Y68186D01*
X497302Y67913D01*
X498698D01*
X500067Y68186D01*
X501357Y68720D01*
X502518Y69495D01*
X503505Y70483D01*
X504280Y71643D01*
X504814Y72933D01*
X505087Y74302D01*
Y75698D01*
X504814Y77067D01*
X504280Y78357D01*
X503505Y79517D01*
X502518Y80505D01*
X501357Y81280D01*
X500067Y81814D01*
X498698Y82087D01*
D02*
G37*
G36*
X133852Y74516D02*
X125984D01*
Y66648D01*
X127588Y66967D01*
X129203Y67636D01*
X130657Y68607D01*
X131893Y69843D01*
X132864Y71297D01*
X133533Y72912D01*
X133852Y74516D01*
D02*
G37*
G36*
X124016D02*
X116148D01*
X116467Y72912D01*
X117136Y71297D01*
X118107Y69843D01*
X119343Y68607D01*
X120797Y67636D01*
X122412Y66967D01*
X124016Y66648D01*
Y74516D01*
D02*
G37*
G36*
X485224Y73327D02*
X476760D01*
Y64862D01*
X485224D01*
Y73327D01*
D02*
G37*
G36*
X24190Y76492D02*
X22794D01*
X21425Y76220D01*
X20135Y75686D01*
X18975Y74910D01*
X17988Y73923D01*
X17212Y72762D01*
X16678Y71473D01*
X16406Y70104D01*
Y68708D01*
X16678Y67338D01*
X17212Y66049D01*
X17988Y64888D01*
X18975Y63901D01*
X20135Y63125D01*
X21425Y62591D01*
X22794Y62319D01*
X24190D01*
X25559Y62591D01*
X26849Y63125D01*
X28010Y63901D01*
X28997Y64888D01*
X29772Y66049D01*
X30306Y67338D01*
X30579Y68708D01*
Y70104D01*
X30306Y71473D01*
X29772Y72762D01*
X28997Y73923D01*
X28010Y74910D01*
X26849Y75686D01*
X25559Y76220D01*
X24190Y76492D01*
D02*
G37*
G36*
X41057Y67732D02*
X39943D01*
X38866Y67444D01*
X37901Y66887D01*
X37113Y66099D01*
X36556Y65134D01*
X36268Y64057D01*
Y62943D01*
X36556Y61866D01*
X37113Y60901D01*
X37901Y60113D01*
X38866Y59556D01*
X39943Y59268D01*
X41057D01*
X42134Y59556D01*
X43099Y60113D01*
X43887Y60901D01*
X44444Y61866D01*
X44732Y62943D01*
Y64057D01*
X44444Y65134D01*
X43887Y66099D01*
X43099Y66887D01*
X42134Y67444D01*
X41057Y67732D01*
D02*
G37*
G36*
X98510Y43878D02*
X97490D01*
X96503Y43614D01*
X95619Y43103D01*
X94897Y42381D01*
X94386Y41497D01*
X94122Y40510D01*
Y39489D01*
X94386Y38503D01*
X94897Y37619D01*
X95619Y36897D01*
X96503Y36386D01*
X97490Y36122D01*
X98510D01*
X99497Y36386D01*
X100381Y36897D01*
X101103Y37619D01*
X101614Y38503D01*
X101878Y39489D01*
Y40510D01*
X101614Y41497D01*
X101103Y42381D01*
X100381Y43103D01*
X99497Y43614D01*
X98510Y43878D01*
D02*
G37*
G36*
X481549Y43138D02*
X480435D01*
X479358Y42849D01*
X478394Y42292D01*
X477605Y41504D01*
X477048Y40539D01*
X476760Y39463D01*
Y38348D01*
X477048Y37272D01*
X477605Y36307D01*
X478394Y35519D01*
X479358Y34962D01*
X480435Y34673D01*
X481549D01*
X482626Y34962D01*
X483591Y35519D01*
X484379Y36307D01*
X484936Y37272D01*
X485224Y38348D01*
Y39463D01*
X484936Y40539D01*
X484379Y41504D01*
X483591Y42292D01*
X482626Y42849D01*
X481549Y43138D01*
D02*
G37*
G36*
X44551Y37362D02*
X41484D01*
Y34295D01*
X44551D01*
Y37362D01*
D02*
G37*
G36*
X39516D02*
X36449D01*
Y34295D01*
X39516D01*
Y37362D01*
D02*
G37*
G36*
X44551Y32327D02*
X41484D01*
Y29260D01*
X44551D01*
Y32327D01*
D02*
G37*
G36*
X39516D02*
X36449D01*
Y29260D01*
X39516D01*
Y32327D01*
D02*
G37*
G36*
X98510Y33878D02*
X97490D01*
X96503Y33614D01*
X95619Y33103D01*
X94897Y32381D01*
X94386Y31497D01*
X94122Y30511D01*
Y29489D01*
X94386Y28503D01*
X94897Y27619D01*
X95619Y26897D01*
X96503Y26386D01*
X97490Y26122D01*
X98510D01*
X99497Y26386D01*
X100381Y26897D01*
X101103Y27619D01*
X101614Y28503D01*
X101878Y29489D01*
Y30511D01*
X101614Y31497D01*
X101103Y32381D01*
X100381Y33103D01*
X99497Y33614D01*
X98510Y33878D01*
D02*
G37*
G36*
X498698Y40087D02*
X497302D01*
X495933Y39814D01*
X494643Y39280D01*
X493482Y38504D01*
X492495Y37517D01*
X491720Y36357D01*
X491186Y35067D01*
X490913Y33698D01*
Y32302D01*
X491186Y30933D01*
X491720Y29643D01*
X492495Y28482D01*
X493482Y27496D01*
X494643Y26720D01*
X495933Y26186D01*
X497302Y25913D01*
X498698D01*
X500067Y26186D01*
X501357Y26720D01*
X502518Y27496D01*
X503505Y28482D01*
X504280Y29643D01*
X504814Y30933D01*
X505087Y32302D01*
Y33698D01*
X504814Y35067D01*
X504280Y36357D01*
X503505Y37517D01*
X502518Y38504D01*
X501357Y39280D01*
X500067Y39814D01*
X498698Y40087D01*
D02*
G37*
G36*
X485224Y31327D02*
X476760D01*
Y22862D01*
X485224D01*
Y31327D01*
D02*
G37*
G36*
X98984Y23563D02*
Y20984D01*
X101564D01*
X101445Y21427D01*
X100958Y22270D01*
X100270Y22958D01*
X99427Y23445D01*
X98984Y23563D01*
D02*
G37*
G36*
X97016D02*
X96573Y23445D01*
X95730Y22958D01*
X95042Y22270D01*
X94555Y21427D01*
X94437Y20984D01*
X97016D01*
Y23563D01*
D02*
G37*
G36*
X24190Y34492D02*
X22794D01*
X21425Y34220D01*
X20135Y33686D01*
X18975Y32910D01*
X17988Y31923D01*
X17212Y30762D01*
X16678Y29473D01*
X16406Y28104D01*
Y26708D01*
X16678Y25338D01*
X17212Y24049D01*
X17988Y22888D01*
X18975Y21901D01*
X20135Y21125D01*
X21425Y20591D01*
X22794Y20319D01*
X24190D01*
X25559Y20591D01*
X26849Y21125D01*
X28010Y21901D01*
X28997Y22888D01*
X29772Y24049D01*
X30306Y25338D01*
X30579Y26708D01*
Y28104D01*
X30306Y29473D01*
X29772Y30762D01*
X28997Y31923D01*
X28010Y32910D01*
X26849Y33686D01*
X25559Y34220D01*
X24190Y34492D01*
D02*
G37*
G36*
X41057Y25732D02*
X39943D01*
X38866Y25444D01*
X37901Y24887D01*
X37113Y24099D01*
X36556Y23134D01*
X36268Y22057D01*
Y20943D01*
X36556Y19866D01*
X37113Y18901D01*
X37901Y18113D01*
X38866Y17556D01*
X39943Y17268D01*
X41057D01*
X42134Y17556D01*
X43099Y18113D01*
X43887Y18901D01*
X44444Y19866D01*
X44732Y20943D01*
Y22057D01*
X44444Y23134D01*
X43887Y24099D01*
X43099Y24887D01*
X42134Y25444D01*
X41057Y25732D01*
D02*
G37*
G36*
X101564Y19016D02*
X98984D01*
Y16436D01*
X99427Y16555D01*
X100270Y17042D01*
X100958Y17730D01*
X101445Y18573D01*
X101564Y19016D01*
D02*
G37*
G36*
X97016D02*
X94437D01*
X94555Y18573D01*
X95042Y17730D01*
X95730Y17042D01*
X96573Y16555D01*
X97016Y16436D01*
Y19016D01*
D02*
G37*
G36*
X287878Y19378D02*
X280122D01*
Y11622D01*
X287878D01*
Y19378D01*
D02*
G37*
G36*
X274511D02*
X273489D01*
X272503Y19114D01*
X271619Y18603D01*
X270897Y17881D01*
X270386Y16997D01*
X270122Y16011D01*
Y14989D01*
X270386Y14003D01*
X270897Y13119D01*
X271619Y12397D01*
X272503Y11886D01*
X273489Y11622D01*
X274511D01*
X275497Y11886D01*
X276381Y12397D01*
X277103Y13119D01*
X277614Y14003D01*
X277878Y14989D01*
Y16011D01*
X277614Y16997D01*
X277103Y17881D01*
X276381Y18603D01*
X275497Y19114D01*
X274511Y19378D01*
D02*
G37*
G36*
X264510D02*
X263490D01*
X262503Y19114D01*
X261619Y18603D01*
X260897Y17881D01*
X260386Y16997D01*
X260122Y16011D01*
Y14989D01*
X260386Y14003D01*
X260897Y13119D01*
X261619Y12397D01*
X262503Y11886D01*
X263490Y11622D01*
X264510D01*
X265497Y11886D01*
X266381Y12397D01*
X267103Y13119D01*
X267614Y14003D01*
X267878Y14989D01*
Y16011D01*
X267614Y16997D01*
X267103Y17881D01*
X266381Y18603D01*
X265497Y19114D01*
X264510Y19378D01*
D02*
G37*
G36*
X254510D02*
X253489D01*
X252503Y19114D01*
X251619Y18603D01*
X250897Y17881D01*
X250386Y16997D01*
X250122Y16011D01*
Y14989D01*
X250386Y14003D01*
X250897Y13119D01*
X251619Y12397D01*
X252503Y11886D01*
X253489Y11622D01*
X254510D01*
X255497Y11886D01*
X256381Y12397D01*
X257103Y13119D01*
X257614Y14003D01*
X257878Y14989D01*
Y16011D01*
X257614Y16997D01*
X257103Y17881D01*
X256381Y18603D01*
X255497Y19114D01*
X254510Y19378D01*
D02*
G37*
G36*
X101697Y13697D02*
X98984D01*
Y10984D01*
X101697D01*
Y13697D01*
D02*
G37*
G36*
X97016D02*
X94303D01*
Y10984D01*
X97016D01*
Y13697D01*
D02*
G37*
G36*
X321817Y28650D02*
X320033D01*
X318284Y28302D01*
X316636Y27619D01*
X315153Y26628D01*
X313892Y25367D01*
X312901Y23884D01*
X312218Y22236D01*
X311870Y20486D01*
Y18703D01*
X312218Y16953D01*
X312901Y15305D01*
X313892Y13822D01*
X315153Y12561D01*
X316636Y11570D01*
X318284Y10887D01*
X320033Y10539D01*
X321817D01*
X323567Y10887D01*
X325214Y11570D01*
X326697Y12561D01*
X327959Y13822D01*
X328950Y15305D01*
X329632Y16953D01*
X329980Y18703D01*
Y20486D01*
X329632Y22236D01*
X328950Y23884D01*
X327959Y25367D01*
X326697Y26628D01*
X325214Y27619D01*
X323567Y28302D01*
X321817Y28650D01*
D02*
G37*
G36*
X124967D02*
X123183D01*
X121433Y28302D01*
X119786Y27619D01*
X118303Y26628D01*
X117041Y25367D01*
X116050Y23884D01*
X115368Y22236D01*
X115020Y20486D01*
Y18703D01*
X115368Y16953D01*
X116050Y15305D01*
X117041Y13822D01*
X118303Y12561D01*
X119786Y11570D01*
X121433Y10887D01*
X123183Y10539D01*
X124967D01*
X126716Y10887D01*
X128364Y11570D01*
X129847Y12561D01*
X131108Y13822D01*
X132099Y15305D01*
X132782Y16953D01*
X133130Y18703D01*
Y20486D01*
X132782Y22236D01*
X132099Y23884D01*
X131108Y25367D01*
X129847Y26628D01*
X128364Y27619D01*
X126716Y28302D01*
X124967Y28650D01*
D02*
G37*
G36*
X471378Y15878D02*
X463622D01*
Y8122D01*
X471378D01*
Y15878D01*
D02*
G37*
G36*
X458010D02*
X456989D01*
X456003Y15614D01*
X455119Y15103D01*
X454397Y14381D01*
X453886Y13497D01*
X453622Y12510D01*
Y11490D01*
X453886Y10503D01*
X454397Y9619D01*
X455119Y8897D01*
X456003Y8386D01*
X456989Y8122D01*
X458010D01*
X458997Y8386D01*
X459881Y8897D01*
X460603Y9619D01*
X461114Y10503D01*
X461378Y11490D01*
Y12510D01*
X461114Y13497D01*
X460603Y14381D01*
X459881Y15103D01*
X458997Y15614D01*
X458010Y15878D01*
D02*
G37*
G36*
X448010D02*
X446989D01*
X446003Y15614D01*
X445119Y15103D01*
X444397Y14381D01*
X443886Y13497D01*
X443622Y12510D01*
Y11490D01*
X443886Y10503D01*
X444397Y9619D01*
X445119Y8897D01*
X446003Y8386D01*
X446989Y8122D01*
X448010D01*
X448997Y8386D01*
X449881Y8897D01*
X450603Y9619D01*
X451114Y10503D01*
X451378Y11490D01*
Y12510D01*
X451114Y13497D01*
X450603Y14381D01*
X449881Y15103D01*
X448997Y15614D01*
X448010Y15878D01*
D02*
G37*
G36*
X438011D02*
X436989D01*
X436003Y15614D01*
X435119Y15103D01*
X434397Y14381D01*
X433886Y13497D01*
X433622Y12510D01*
Y11490D01*
X433886Y10503D01*
X434397Y9619D01*
X435119Y8897D01*
X436003Y8386D01*
X436989Y8122D01*
X438011D01*
X438997Y8386D01*
X439881Y8897D01*
X440603Y9619D01*
X441114Y10503D01*
X441378Y11490D01*
Y12510D01*
X441114Y13497D01*
X440603Y14381D01*
X439881Y15103D01*
X438997Y15614D01*
X438011Y15878D01*
D02*
G37*
G36*
X101697Y9016D02*
X98984D01*
Y6303D01*
X101697D01*
Y9016D01*
D02*
G37*
G36*
X97016D02*
X94303D01*
Y6303D01*
X97016D01*
Y9016D01*
D02*
G37*
%LPD*%
D25*
X145000Y161000D02*
D03*
D26*
X480492Y242595D02*
D03*
X40500Y33311D02*
D03*
D27*
X480992Y111535D02*
D03*
Y177535D02*
D03*
X40500Y187811D02*
D03*
X40508Y253468D02*
D03*
X55000Y240500D02*
D03*
X98000Y10000D02*
D03*
D28*
X480992Y135158D02*
D03*
Y201157D02*
D03*
X40500Y164189D02*
D03*
X40508Y229847D02*
D03*
X229500Y266000D02*
D03*
X219500D02*
D03*
X209500D02*
D03*
X199500D02*
D03*
X189500D02*
D03*
X179500D02*
D03*
X169500D02*
D03*
X416500Y267500D02*
D03*
X98000Y20000D02*
D03*
X383000Y230500D02*
D03*
D30*
X175689Y161000D02*
D03*
D31*
X239500Y266000D02*
D03*
X426500Y267500D02*
D03*
X373000Y230500D02*
D03*
D32*
X125000Y75500D02*
D03*
X339000Y199000D02*
D03*
M02*
