G04*
G04 #@! TF.GenerationSoftware,Altium Limited,Altium Designer,21.9.2 (33)*
G04*
G04 Layer_Physical_Order=4*
G04 Layer_Color=16711680*
%FSLAX25Y25*%
%MOIN*%
G70*
G04*
G04 #@! TF.SameCoordinates,1158F630-F6B0-42DE-A473-F25834DE5FAC*
G04*
G04*
G04 #@! TF.FilePolarity,Positive*
G04*
G01*
G75*
%ADD22C,0.01000*%
%ADD23C,0.03000*%
%ADD24C,0.05906*%
%ADD25C,0.06102*%
%ADD26R,0.06102X0.06102*%
%ADD27R,0.05394X0.05394*%
%ADD28C,0.05394*%
%ADD29C,0.11811*%
%ADD30R,0.06102X0.06102*%
%ADD31R,0.05394X0.05394*%
%ADD32C,0.15748*%
%ADD33C,0.02362*%
D22*
X209500Y193000D02*
X227000Y175500D01*
X249500D01*
X209500Y193000D02*
Y256000D01*
X229500Y241500D02*
Y256000D01*
X253699Y217291D02*
Y217301D01*
X229500Y241500D02*
X253699Y217301D01*
X40500Y152378D02*
X51878D01*
X107000Y207500D02*
X149500D01*
X51878Y152378D02*
X107000Y207500D01*
X59665Y222500D02*
X136115D01*
X136242Y222373D01*
X40508Y241657D02*
X59665Y222500D01*
X169500Y248000D02*
Y256000D01*
X40508Y218035D02*
X139535D01*
X169500Y248000D01*
X95000Y213000D02*
X166000D01*
X199500Y246500D02*
Y256000D01*
X166000Y213000D02*
X199500Y246500D01*
X58000Y176000D02*
X95000Y213000D01*
X40500Y176000D02*
X58000D01*
X208965Y256000D02*
X209500D01*
X239500Y255500D02*
Y256000D01*
D23*
X40508Y107595D02*
X215094D01*
X275000Y167500D01*
Y259500D01*
X255000D02*
X265000D01*
X208906Y119405D02*
X265000Y175500D01*
Y259500D01*
X40508Y119405D02*
X208906D01*
X341000Y239000D02*
X344500Y235500D01*
X320500Y239000D02*
X341000D01*
X344500Y230500D02*
Y235500D01*
X65000Y63500D02*
X91500Y90000D01*
X282500D01*
X40500Y63500D02*
X65000D01*
X301500Y120000D02*
Y220000D01*
X320500Y239000D01*
X279500Y98000D02*
X301500Y120000D01*
X88500Y98000D02*
X279500D01*
X344500Y230500D02*
X354500D01*
X40500Y75311D02*
X65811D01*
X88500Y98000D01*
X324500Y230500D02*
X334500D01*
X309000Y116500D02*
Y215000D01*
X324500Y230500D01*
X282500Y90000D02*
X309000Y116500D01*
X275000Y259500D02*
X285000D01*
X401500Y267500D02*
X406500D01*
X396500D02*
X401500D01*
Y259500D02*
X406595Y254405D01*
X480492D01*
X401500Y259500D02*
Y267500D01*
X259000Y15500D02*
X264000D01*
X254000D02*
X259000D01*
X378000Y43500D02*
X403594Y69095D01*
X480992D01*
X276000Y43500D02*
X378000D01*
X259000Y26500D02*
X276000Y43500D01*
X259000Y15500D02*
Y26500D01*
X437500Y12000D02*
X447500D01*
X437500Y16500D02*
X448095Y27095D01*
X437500Y12000D02*
Y16500D01*
X448095Y27095D02*
X480992D01*
X398324Y230500D02*
X403000D01*
X393648D02*
X398324D01*
X398000Y230176D02*
X398324Y230500D01*
X337500Y54000D02*
X398000Y114500D01*
Y230176D01*
X393000Y230500D02*
X393648D01*
X82500Y54000D02*
X337500D01*
X50000Y21500D02*
X82500Y54000D01*
X40500Y21500D02*
X50000D01*
D24*
X498000Y75000D02*
D03*
Y33000D02*
D03*
X497500Y248500D02*
D03*
X181595Y143992D02*
D03*
X139094D02*
D03*
X23492Y27406D02*
D03*
Y69406D02*
D03*
X23500Y113500D02*
D03*
D25*
X480992Y80905D02*
D03*
Y38906D02*
D03*
X480492Y254405D02*
D03*
X187500Y161000D02*
D03*
X145000D02*
D03*
X40500Y21500D02*
D03*
Y63500D02*
D03*
X40508Y107595D02*
D03*
D26*
X480992Y69095D02*
D03*
Y27095D02*
D03*
X480492Y242595D02*
D03*
X40500Y33311D02*
D03*
Y75311D02*
D03*
X40508Y119405D02*
D03*
D27*
X480992Y111535D02*
D03*
Y177535D02*
D03*
X40500Y187811D02*
D03*
X40508Y253468D02*
D03*
X55000Y240500D02*
D03*
X98000Y10000D02*
D03*
D28*
X480992Y123346D02*
D03*
Y135158D02*
D03*
Y146968D02*
D03*
Y189347D02*
D03*
Y201157D02*
D03*
Y212968D02*
D03*
X40500Y176000D02*
D03*
Y164189D02*
D03*
Y152378D02*
D03*
X40508Y241657D02*
D03*
Y229847D02*
D03*
Y218035D02*
D03*
X229500Y266000D02*
D03*
X219500D02*
D03*
X209500D02*
D03*
X199500D02*
D03*
X189500D02*
D03*
X179500D02*
D03*
X169500D02*
D03*
Y256000D02*
D03*
X179500D02*
D03*
X189500D02*
D03*
X199500D02*
D03*
X209500D02*
D03*
X219500D02*
D03*
X229500D02*
D03*
X239500D02*
D03*
X55000Y250500D02*
D03*
X403000Y230500D02*
D03*
X393000D02*
D03*
X406500Y267500D02*
D03*
X396500D02*
D03*
X285000Y259500D02*
D03*
X275000D02*
D03*
X354500Y230500D02*
D03*
X344500D02*
D03*
X264000Y15500D02*
D03*
X254000D02*
D03*
X447500Y12000D02*
D03*
X437500D02*
D03*
X265000Y259500D02*
D03*
X334500Y230500D02*
D03*
X274000Y15500D02*
D03*
X457500Y12000D02*
D03*
X98000Y30000D02*
D03*
Y40000D02*
D03*
X416500Y267500D02*
D03*
X98000Y20000D02*
D03*
X383000Y230500D02*
D03*
D29*
X498000Y120000D02*
D03*
Y138504D02*
D03*
Y186000D02*
D03*
Y204504D02*
D03*
X23492Y179347D02*
D03*
Y160843D02*
D03*
X23500Y245004D02*
D03*
Y226500D02*
D03*
D30*
X175689Y161000D02*
D03*
X133189D02*
D03*
D31*
X239500Y266000D02*
D03*
X255000Y259500D02*
D03*
X324500Y230500D02*
D03*
X284000Y15500D02*
D03*
X467500Y12000D02*
D03*
X426500Y267500D02*
D03*
X373000Y230500D02*
D03*
D32*
X125000Y75500D02*
D03*
X339000Y199000D02*
D03*
X320925Y255815D02*
D03*
Y19594D02*
D03*
X124075D02*
D03*
Y255815D02*
D03*
D33*
X249500Y175500D02*
D03*
X253699Y217291D02*
D03*
X149500Y207500D02*
D03*
X136242Y222373D02*
D03*
M02*
